<svg xmlns="http://www.w3.org/2000/svg" xmlns:xlink="http://www.w3.org/1999/xlink" viewBox="176 -748 19 19">
  <defs>
    <style>
      .cls-1 {
        fill: none;
      }

      .cls-2 {
        clip-path: url(#clip-Artboard_2);
      }

      .cls-3 {
        fill: #20519a;
      }

      .cls-3, .cls-4 {
        stroke: #20519a;
      }

      .cls-3, .cls-4, .cls-6 {
        stroke-width: 1px;
      }

      .cls-4, .cls-6 {
        fill: #fff;
      }

      .cls-5 {
        clip-path: url(#clip-path);
      }

      .cls-6 {
        stroke: #fff;
      }

      .cls-7 {
        stroke: none;
      }
    </style>
    <clipPath id="clip-path">
      <rect class="cls-1" width="5" height="1"/>
    </clipPath>
    <clipPath id="clip-Artboard_2">
      <rect x="176" y="-748" width="19" height="19"/>
    </clipPath>
  </defs>
  <g id="Artboard_2" data-name="Artboard – 2" class="cls-2">
    <g id="rectangle-2" class="cls-3" transform="translate(178 -744)">
      <rect class="cls-7" width="7" height="11"/>
      <rect class="cls-1" x="0.5" y="0.5" width="6" height="10"/>
    </g>
    <g id="rectangle-3" class="cls-4" transform="translate(184 -740)">
      <rect class="cls-7" width="7" height="7"/>
      <rect class="cls-1" x="0.5" y="0.5" width="6" height="6"/>
    </g>
    <g id="rectangle-4" class="cls-4" transform="translate(186 -738)">
      <rect class="cls-7" width="1" height="1"/>
      <rect class="cls-1" x="0.5" y="0.5"/>
    </g>
    <g id="rectangle-4-2" data-name="rectangle-4" class="cls-4" transform="translate(188 -738)">
      <rect class="cls-7" width="1" height="1"/>
      <rect class="cls-1" x="0.5" y="0.5"/>
    </g>
    <g id="rectangle-4-3" data-name="rectangle-4" class="cls-4" transform="translate(186 -736)">
      <rect class="cls-7" width="1" height="1"/>
      <rect class="cls-1" x="0.5" y="0.5"/>
    </g>
    <g id="rectangle-4-4" data-name="rectangle-4" class="cls-4" transform="translate(188 -736)">
      <rect class="cls-7" width="1" height="1"/>
      <rect class="cls-1" x="0.5" y="0.5"/>
    </g>
    <g id="group-5" transform="translate(176 -747)">
      <g id="group-4" class="cls-5" transform="translate(3 4)">
        <g id="group" transform="translate(-3 -4)">
          <g id="rectangle-4-5" data-name="rectangle-4" class="cls-6" transform="translate(3 4)">
            <rect class="cls-7" width="1" height="1"/>
            <rect class="cls-1" x="0.5" y="0.5"/>
          </g>
          <g id="rectangle-4-6" data-name="rectangle-4" class="cls-6" transform="translate(5 4)">
            <rect class="cls-7" width="1" height="1"/>
            <rect class="cls-1" x="0.5" y="0.5"/>
          </g>
          <g id="rectangle-4-7" data-name="rectangle-4" class="cls-6" transform="translate(7 4)">
            <rect class="cls-7" width="1" height="1"/>
            <rect class="cls-1" x="0.5" y="0.5"/>
          </g>
        </g>
      </g>
    </g>
    <g id="group-5-2" data-name="group-5" transform="translate(176 -745)">
      <g id="group-4-2" data-name="group-4" class="cls-5" transform="translate(3 4)">
        <g id="group-2" data-name="group" transform="translate(-3 -4)">
          <g id="rectangle-4-8" data-name="rectangle-4" class="cls-6" transform="translate(3 4)">
            <rect class="cls-7" width="1" height="1"/>
            <rect class="cls-1" x="0.5" y="0.5"/>
          </g>
          <g id="rectangle-4-9" data-name="rectangle-4" class="cls-6" transform="translate(5 4)">
            <rect class="cls-7" width="1" height="1"/>
            <rect class="cls-1" x="0.5" y="0.5"/>
          </g>
          <g id="rectangle-4-10" data-name="rectangle-4" class="cls-6" transform="translate(7 4)">
            <rect class="cls-7" width="1" height="1"/>
            <rect class="cls-1" x="0.5" y="0.5"/>
          </g>
        </g>
      </g>
    </g>
    <g id="group-5-3" data-name="group-5" transform="translate(176 -743)">
      <g id="group-4-3" data-name="group-4" class="cls-5" transform="translate(3 4)">
        <g id="group-3" data-name="group" transform="translate(-3 -4)">
          <g id="rectangle-4-11" data-name="rectangle-4" class="cls-6" transform="translate(3 4)">
            <rect class="cls-7" width="1" height="1"/>
            <rect class="cls-1" x="0.5" y="0.5"/>
          </g>
          <g id="rectangle-4-12" data-name="rectangle-4" class="cls-6" transform="translate(5 4)">
            <rect class="cls-7" width="1" height="1"/>
            <rect class="cls-1" x="0.5" y="0.5"/>
          </g>
          <g id="rectangle-4-13" data-name="rectangle-4" class="cls-6" transform="translate(7 4)">
            <rect class="cls-7" width="1" height="1"/>
            <rect class="cls-1" x="0.5" y="0.5"/>
          </g>
        </g>
      </g>
    </g>
    <g id="group-5-4" data-name="group-5" transform="translate(176 -741)">
      <g id="group-4-4" data-name="group-4" class="cls-5" transform="translate(3 4)">
        <g id="group-4-5" data-name="group" transform="translate(-3 -4)">
          <g id="rectangle-4-14" data-name="rectangle-4" class="cls-6" transform="translate(3 4)">
            <rect class="cls-7" width="1" height="1"/>
            <rect class="cls-1" x="0.5" y="0.5"/>
          </g>
          <g id="rectangle-4-15" data-name="rectangle-4" class="cls-6" transform="translate(5 4)">
            <rect class="cls-7" width="1" height="1"/>
            <rect class="cls-1" x="0.5" y="0.5"/>
          </g>
          <g id="rectangle-4-16" data-name="rectangle-4" class="cls-6" transform="translate(7 4)">
            <rect class="cls-7" width="1" height="1"/>
            <rect class="cls-1" x="0.5" y="0.5"/>
          </g>
        </g>
      </g>
    </g>
    <g id="group-5-5" data-name="group-5" transform="translate(176 -739)">
      <g id="group-4-6" data-name="group-4" class="cls-5" transform="translate(3 4)">
        <g id="group-5-6" data-name="group" transform="translate(-3 -4)">
          <g id="rectangle-4-17" data-name="rectangle-4" class="cls-6" transform="translate(3 4)">
            <rect class="cls-7" width="1" height="1"/>
            <rect class="cls-1" x="0.5" y="0.5"/>
          </g>
          <g id="rectangle-4-18" data-name="rectangle-4" class="cls-6" transform="translate(5 4)">
            <rect class="cls-7" width="1" height="1"/>
            <rect class="cls-1" x="0.5" y="0.5"/>
          </g>
          <g id="rectangle-4-19" data-name="rectangle-4" class="cls-6" transform="translate(7 4)">
            <rect class="cls-7" width="1" height="1"/>
            <rect class="cls-1" x="0.5" y="0.5"/>
          </g>
        </g>
      </g>
    </g>
  </g>
</svg>
